<?xml version="1.0" standalone="no"?>
<!DOCTYPE svg PUBLIC "-//W3C//DTD SVG 20010904//EN"
 "http://www.w3.org/TR/2001/REC-SVG-20010904/DTD/svg10.dtd">
<svg version="1.0" xmlns="http://www.w3.org/2000/svg"
 width="400.000000pt" height="400.000000pt" viewBox="0 0 400.000000 400.000000"
 preserveAspectRatio="xMidYMid meet">
<metadata>
Created by potrace 1.14, written by Peter Selinger 2001-2017
</metadata>
<g transform="translate(0.000000,400.000000) scale(0.100000,-0.100000)"
fill="#000000" stroke="none">
<path d="M2528 3600 c18 -17 21 -28 16 -66 -10 -85 -39 -134 -80 -134 -84 0
-203 -151 -206 -262 -1 -27 -2 -48 -4 -48 -1 0 -28 14 -60 31 -51 27 -66 30
-111 26 -37 -4 -53 -2 -53 6 0 7 -22 33 -49 59 -72 70 -117 75 -178 20 -51
-47 -65 -130 -39 -228 l13 -51 -65 -58 c-103 -93 -131 -184 -130 -425 0 -80
-2 -181 -6 -225 -3 -44 -6 -88 -6 -97 0 -10 -10 -22 -22 -28 -22 -11 -22 -10
-4 4 18 15 -10 16 -312 16 -263 0 -330 -3 -327 -13 3 -7 -9 -28 -26 -47 l-30
-35 26 36 c22 32 24 40 15 65 -22 58 -78 95 -127 86 -32 -6 -93 -66 -93 -92 0
-10 -5 -22 -12 -26 -8 -5 -9 -2 -5 9 6 16 -20 17 -323 17 l-330 0 0 -1070 0
-1070 329 0 c302 1 330 2 335 18 3 9 8 100 11 202 8 268 23 483 40 578 12 69
22 96 60 153 49 74 55 89 28 68 -16 -13 -17 -12 -4 3 7 10 17 16 21 13 5 -3
16 5 24 17 19 26 21 42 5 32 -8 -5 -8 -1 0 14 6 12 17 24 24 28 8 5 7 2 -2 -9
-8 -10 -11 -20 -8 -23 9 -10 39 44 31 57 -4 7 -3 9 4 5 6 -3 39 38 78 100 41
65 78 111 93 118 31 14 141 85 141 91 0 2 -6 3 -12 1 -7 -1 -10 -1 -5 1 14 8
7 23 -26 56 -18 17 -39 41 -47 52 -8 11 9 -2 38 -30 29 -27 52 -53 52 -58 0
-4 14 -20 30 -34 l31 -26 -33 -20 c-22 -13 -47 -20 -73 -18 -31 2 -37 0 -28
-9 7 -8 56 -14 123 -18 l113 -5 51 -45 c44 -40 52 -52 59 -96 4 -27 12 -53 18
-57 8 -5 8 -8 0 -13 -6 -4 -16 -4 -22 0 -17 10 -40 71 -33 87 3 10 -11 28 -42
51 -52 40 -86 45 -152 22 -29 -10 -51 -12 -72 -6 -22 6 -30 6 -28 -2 4 -11 38
-22 171 -52 32 -8 59 -15 60 -17 2 -2 11 -20 20 -39 10 -19 24 -46 32 -60 18
-34 1 -136 -24 -143 -15 -4 -16 1 -7 49 8 48 7 58 -15 100 -28 53 -45 62 -139
69 -56 4 -70 3 -70 -9 0 -16 29 -37 120 -86 36 -20 64 -41 63 -47 -1 -6 -5
-48 -9 -92 -10 -117 -30 -106 -41 23 l-6 69 -63 28 c-35 16 -67 29 -71 29 -11
0 -59 -72 -55 -83 1 -5 -2 -6 -7 -3 -5 4 -20 -8 -32 -26 -39 -56 -167 -193
-193 -207 -30 -17 -33 -44 -42 -371 -4 -162 -3 -265 6 -332 l12 -98 290 0 290
0 -7 27 c-11 46 -11 47 13 51 19 3 26 -4 40 -37 l17 -41 838 0 c460 0 837 3
837 6 0 3 -5 15 -11 27 -7 16 -4 14 11 -5 l22 -28 399 0 399 0 0 1070 0 1070
-789 0 c-622 0 -791 -3 -795 -12 -3 -7 -4 -4 -1 7 20 84 15 163 -11 190 -13
13 -12 19 6 54 25 50 50 165 50 232 l0 51 42 -37 c23 -19 64 -46 90 -58 44
-20 47 -24 42 -52 -14 -75 -37 -139 -59 -161 -13 -13 -22 -24 -20 -24 16 0 98
54 141 93 67 61 86 110 90 241 2 54 6 101 8 103 7 7 63 -107 71 -146 13 -61
28 -7 22 80 -6 90 -35 154 -98 216 -21 21 -39 41 -39 45 0 3 29 35 65 69 77
73 120 154 124 228 2 43 -1 51 -29 74 -17 15 -54 33 -82 42 -59 17 -180 20
-208 5 -18 -10 -19 -6 -19 52 1 86 -44 188 -84 188 -6 0 -1 -9 11 -20z m-591
-699 c156 -3 199 -16 250 -74 29 -34 30 -37 21 -89 -5 -29 -22 -76 -37 -105
-16 -28 -25 -55 -21 -60 9 -10 24 -54 56 -163 36 -119 26 -166 -50 -247 l-30
-33 25 0 c31 0 81 50 106 106 25 57 75 98 109 90 45 -12 58 -104 29 -204 -28
-93 -118 -163 -172 -134 -42 23 -59 5 -93 -91 -38 -109 -97 -239 -134 -293
-39 -58 -143 -160 -204 -201 -71 -46 -128 -63 -223 -64 -102 -1 -149 14 -149
47 0 14 -6 39 -13 57 -12 27 -25 36 -78 55 -62 22 -65 24 -86 77 -18 43 -21
66 -17 117 13 152 160 349 301 404 40 16 43 15 127 -14 46 -17 115 -49 152
-71 61 -37 93 -47 132 -42 8 1 20 -3 28 -10 22 -18 27 -4 9 25 -16 24 -19 25
-30 10 -18 -25 -66 -12 -153 42 l-73 46 30 19 c32 19 43 61 19 75 -8 5 -9 0
-5 -15 8 -32 -17 -53 -49 -40 -15 5 -48 7 -74 3 -27 -3 -50 -2 -53 3 -14 22
16 83 69 144 57 65 97 126 109 167 11 38 -10 24 -24 -15 -15 -42 -45 -86 -108
-157 l-43 -48 5 158 c3 88 5 171 5 186 0 21 4 25 20 21 13 -3 22 1 26 11 4 10
22 27 40 40 29 19 32 25 20 35 -11 9 -22 9 -51 -4 -21 -8 -39 -15 -42 -15 -2
0 -1 21 3 46 9 65 46 124 115 188 l60 56 34 -19 c24 -12 58 -19 112 -20z
m-1067 -762 c0 -30 -21 -66 -46 -80 -30 -16 -30 -21 0 -66 23 -33 25 -63 6
-63 -15 0 -145 151 -146 168 -1 54 35 100 88 112 28 6 38 3 66 -23 17 -17 32
-39 32 -48z m1524 -76 c-19 -42 -52 -83 -67 -83 -5 0 4 15 20 33 16 18 35 48
42 65 8 18 16 31 18 28 3 -2 -3 -22 -13 -43z m-1721 -13 c4 -20 18 -37 39 -50
29 -17 62 -44 143 -117 39 -35 148 -163 143 -168 -3 -3 -18 11 -34 32 -43 57
-212 219 -250 239 -29 16 -64 68 -64 95 0 21 18 -2 23 -31z m737 -7 c-18 -15
-54 -53 -81 -85 -27 -33 -49 -56 -49 -52 0 19 148 180 157 170 3 -3 -9 -17
-27 -33z m-570 -18 c0 -8 4 -15 8 -15 5 0 14 -12 21 -27 10 -26 9 -25 -18 7
-32 37 -37 50 -21 50 6 0 10 -7 10 -15z m1467 -51 c-3 -3 -12 -4 -19 -1 -8 3
-5 6 6 6 11 1 17 -2 13 -5z m-88 -75 c-28 -38 -54 -68 -57 -65 -3 3 7 20 22
38 15 18 36 48 47 66 12 17 25 32 30 32 5 0 -14 -32 -42 -71z m-1291 5 c-4 -3
-12 5 -18 18 -12 22 -12 22 6 6 10 -10 15 -20 12 -24z m109 -106 c91 -108 74
-100 -28 13 -39 44 -66 79 -61 79 6 0 46 -42 89 -92z m217 40 c-10 -18 -26
-58 -36 -88 -15 -45 -17 -48 -13 -17 7 43 46 137 58 137 4 0 0 -15 -9 -32z
m916 -140 c0 -5 -16 8 -35 28 -19 19 -35 38 -35 42 0 3 16 -9 35 -28 19 -19
35 -38 35 -42z m-1024 -23 c16 -14 24 -25 18 -25 -6 0 -21 11 -34 25 -30 32
-21 32 16 0z m64 -60 c0 -8 -4 -15 -10 -15 -5 0 -7 7 -4 15 4 8 8 15 10 15 2
0 4 -7 4 -15z m834 -102 c4 -60 11 -128 17 -153 5 -25 12 -63 15 -86 6 -40 6
-40 -33 -52 -21 -6 -45 -17 -53 -24 -9 -7 -13 -12 -11 -11 2 1 12 -2 22 -8 25
-13 27 -84 3 -93 -47 -18 -111 17 -101 55 6 23 0 23 -47 4 -20 -8 -36 -14 -37
-13 0 2 -3 50 -6 108 -3 58 -9 112 -14 121 -6 12 4 25 40 52 59 45 141 131
166 175 11 17 22 32 26 32 3 0 9 -48 13 -107z m-662 -52 c3 -3 10 -23 14 -45
9 -51 -7 -46 -53 17 l-35 47 34 -6 c18 -4 36 -9 40 -13z m-305 -67 c-3 -3 -12
-4 -19 -1 -8 3 -5 6 6 6 11 1 17 -2 13 -5z m1033 -70 c0 -2 -7 -4 -15 -4 -8 0
-15 4 -15 10 0 5 7 7 15 4 8 -4 15 -8 15 -10z m63 -11 c-7 -2 -21 -2 -30 0
-10 3 -4 5 12 5 17 0 24 -2 18 -5z m52 -3 c3 -5 -1 -10 -10 -10 -9 0 -13 5
-10 10 3 6 8 10 10 10 2 0 7 -4 10 -10z m-1261 -48 c-18 -32 -60 -85 -48 -62
17 33 55 90 60 90 3 0 -2 -13 -12 -28z m1350 -144 c9 -12 16 -27 16 -33 0 -16
-52 -53 -81 -57 -22 -3 -23 0 -20 42 1 25 7 51 13 58 16 19 55 14 72 -10z
m122 8 c8 -8 14 -23 13 -33 0 -14 -2 -15 -6 -3 -3 8 -12 23 -21 33 -18 20 -7
23 14 3z m-698 -112 c4 -53 -13 -68 -57 -53 -42 15 -44 56 -3 82 41 25 57 18
60 -29z m732 -39 c0 -5 -5 -3 -10 5 -5 8 -10 20 -10 25 0 6 5 3 10 -5 5 -8 10
-19 10 -25z m-1706 -15 c-15 -22 -29 -38 -31 -36 -5 5 46 76 53 76 3 0 -8 -18
-22 -40z m1157 -26 l24 -25 -25 -19 c-32 -24 -109 -54 -118 -45 -4 3 -7 24 -7
47 0 47 22 68 70 68 21 0 40 -9 56 -26z m569 16 c0 -5 -4 -10 -10 -10 -5 0
-10 5 -10 10 0 6 5 10 10 10 6 0 10 -4 10 -10z m-214 -54 c19 -19 34 -40 34
-48 0 -19 -38 -36 -70 -32 -14 1 -40 3 -59 3 -32 1 -33 2 -27 34 6 34 47 77
73 77 8 0 30 -15 49 -34z m257 3 c21 -17 36 -34 33 -37 -3 -2 -24 12 -46 32
-49 44 -39 48 13 5z m-1822 -30 c-5 -13 -10 -19 -10 -12 -1 15 10 45 15 40 3
-2 0 -15 -5 -28z m897 -55 c38 -26 28 -51 -34 -80 -67 -32 -83 -24 -68 33 6
24 18 42 34 50 33 16 41 16 68 -3z m1040 -32 c46 -55 37 -53 -18 4 -25 26 -39
45 -31 42 8 -2 30 -23 49 -46z m77 -92 c10 -11 16 -20 13 -20 -3 0 -13 9 -23
20 -10 11 -16 20 -13 20 3 0 13 -9 23 -20z m-874 -29 c33 -33 36 -56 13 -89
-19 -28 -44 -28 -78 -1 -30 24 -34 63 -10 97 20 30 40 28 75 -7z m-336 -26
c32 -31 32 -59 -1 -91 -19 -20 -31 -24 -52 -19 -59 14 -80 65 -46 113 21 30
68 29 99 -3z m-344 -58 c-10 -9 -11 -8 -5 6 3 10 9 15 12 12 3 -3 0 -11 -7
-18z m1704 -73 c47 -73 45 -81 -3 -13 -52 75 -57 84 -43 75 6 -4 27 -32 46
-62z m-2208 -31 c-3 -10 -5 -4 -5 12 0 17 2 24 5 18 2 -7 2 -21 0 -30z m938
17 c35 -39 -12 -118 -63 -105 -38 9 -46 20 -46 61 0 60 69 88 109 44z m1355
-111 c15 -28 5 -23 -15 7 -9 15 -12 23 -6 20 6 -4 16 -16 21 -27z m-1276 -65
c19 -18 21 -85 4 -102 -28 -28 -118 0 -118 37 0 19 21 66 33 73 20 13 65 9 81
-8z m112 -161 c-9 -49 -26 -93 -37 -93 -11 0 -39 54 -39 76 0 26 30 54 58 54
23 0 24 -3 18 -37z m-1139 -45 c-3 -8 -6 -5 -6 6 -1 11 2 17 5 13 3 -3 4 -12
1 -19z m2503 -43 c0 -5 -5 -3 -10 5 -5 8 -10 20 -10 25 0 6 5 3 10 -5 5 -8 10
-19 10 -25z"/>
<path d="M1932 2661 c2 -5 22 -30 46 -55 37 -40 46 -45 63 -35 29 15 20 49
-20 76 -33 23 -96 32 -89 14z"/>
<path d="M1668 2443 c-22 -4 -45 -29 -35 -39 4 -4 87 36 87 42 0 4 -7 4 -52
-3z"/>
<path d="M1875 2430 c-6 -9 83 -62 98 -57 5 1 -14 17 -42 34 -28 18 -53 28
-56 23z"/>
<path d="M1697 2413 c-4 -3 -7 -11 -7 -17 0 -6 5 -5 12 2 6 6 9 14 7 17 -3 3
-9 2 -12 -2z"/>
<path d="M1870 2394 c0 -17 18 -36 30 -32 7 2 4 10 -9 22 -12 11 -21 15 -21
10z"/>
</g>
</svg>
